<?xml version="1.0" standalone="no"?>
<!DOCTYPE svg PUBLIC "-//W3C//DTD SVG 20010904//EN"
 "http://www.w3.org/TR/2001/REC-SVG-20010904/DTD/svg10.dtd">
<svg version="1.0" xmlns="http://www.w3.org/2000/svg"
 width="512.000000pt" height="512.000000pt" viewBox="0 0 512.000000 512.000000"
 preserveAspectRatio="xMidYMid meet">

<g transform="translate(0.000000,512.000000) scale(0.100000,-0.100000)"
fill="#000000" stroke="none">
<path d="M2331 4375 c-306 -79 -555 -313 -650 -610 -166 -517 136 -1056 665
-1187 131 -32 313 -30 446 5 386 102 656 427 693 833 8 95 -11 240 -46 349
-77 240 -266 452 -496 557 -180 81 -420 102 -612 53z"/>
<path d="M2405 2393 c-620 -54 -1170 -398 -1468 -918 -108 -189 -188 -436
-212 -650 -6 -52 -4 -65 13 -85 l20 -25 1774 -3 c1249 -2 1784 0 1810 8 55 16
62 36 48 138 -78 587 -456 1092 -1015 1358 -294 140 -651 205 -970 177z"/>
</g>
</svg>
