<?xml version="1.0" encoding="UTF-8"?>
<svg version="1.1" xmlns="http://www.w3.org/2000/svg" width="512" height="512">
<path d="M0 0 C0.74064697 0.34659668 1.48129395 0.69319336 2.24438477 1.05029297 C3.9287516 1.83953914 5.60979045 2.63591258 7.28808594 3.43798828 C10.57736348 4.99732076 13.88468651 6.51387649 17.1953125 8.02734375 C19.67239125 9.16293935 22.14872023 10.30016345 24.625 11.4375 C25.79716064 11.97528076 26.96932129 12.51306152 28.17700195 13.06713867 C43.5854838 20.21159744 56.61476439 26.82580275 64.1875 42.8125 C68.58972952 54.99267622 71.38070345 67.60070253 74.23046875 80.2109375 C74.71248112 82.32191245 75.19505698 84.43275881 75.67814636 86.54348755 C76.71132608 91.06322915 77.74049777 95.58385755 78.76654053 100.10522461 C80.3933003 107.27297445 82.03037971 114.43834522 83.66845703 121.60351562 C88.72947398 143.75471064 93.76172518 165.91237516 98.77134418 188.075243 C100.28291351 194.76247336 101.79528149 201.44951928 103.31089783 208.13583374 C103.45818893 208.78564284 103.60548004 209.43545193 103.75723451 210.10495222 C104.49302044 213.35080717 105.22900561 216.59661679 105.96515179 219.84239006 C107.69036573 227.45228357 109.4069379 235.06406272 111.11717319 242.67733574 C112.18293865 247.41359504 113.25593852 252.14819399 114.33086586 256.88238144 C114.82916128 259.08415553 115.32436374 261.28663218 115.81627464 263.48984146 C116.48838135 266.49838691 117.1713017 269.50427835 117.85693359 272.50976562 C118.05004718 273.38677313 118.24316076 274.26378063 118.44212627 275.16736412 C119.78741709 280.99161591 120.9957396 285.3513264 126.1875 288.8125 C128.27388216 289.11161658 128.27388216 289.11161658 130.60319328 289.06418228 C131.51176578 289.06939778 132.42033828 289.07461327 133.35644329 289.07998681 C134.35594072 289.07552537 135.35543815 289.07106392 136.38522339 289.06646729 C137.97636198 289.07114726 137.97636198 289.07114726 139.59964478 289.07592177 C143.17179154 289.08393073 146.74376979 289.07756676 150.31591797 289.07128906 C152.86979268 289.07399767 155.42366662 289.07755786 157.97753906 289.08190918 C164.20524872 289.09010127 170.43289548 289.08887562 176.66060601 289.0830839 C181.721995 289.07857136 186.78337047 289.07795274 191.84476089 289.08013153 C192.56450473 289.080438 193.28424857 289.08074446 194.02580283 289.08106022 C195.48786957 289.08169966 196.94993632 289.08234808 198.41200306 289.0830054 C212.13143611 289.08871245 225.85084247 289.08214535 239.57027115 289.07140467 C251.34389858 289.06247261 263.11748657 289.06401761 274.89111328 289.07324219 C288.55758219 289.08394476 302.22402767 289.08815908 315.89050019 289.08201766 C317.34786931 289.08138055 318.80523844 289.08075181 320.26260757 289.08013153 C320.97968772 289.07982298 321.69676787 289.07951443 322.43557771 289.07919653 C327.49025938 289.07746926 332.54492619 289.08038545 337.59960556 289.08509064 C344.40392235 289.09128511 351.20815309 289.08687568 358.01246643 289.07530212 C360.51305645 289.07265284 363.01365272 289.07342518 365.51424026 289.07782745 C368.92151533 289.08327377 372.32854969 289.07645957 375.73580933 289.06646729 C377.22836331 289.07315945 377.22836331 289.07315945 378.7510699 289.07998681 C385.27429725 289.1901853 385.27429725 289.1901853 391.1875 286.8125 C392.34857707 284.59181836 392.34857707 284.59181836 392.82997131 281.90145874 C393.06014009 280.90937786 393.29030888 279.91729698 393.52745247 278.89515305 C393.854176 277.36923979 393.854176 277.36923979 394.1875 275.8125 C394.63259964 273.97127067 395.08024784 272.13065548 395.53050232 270.29067993 C395.99173061 268.3239924 396.45077819 266.35679252 396.90795898 264.38916016 C397.16222153 263.30225891 397.41648407 262.21535767 397.67845154 261.09552002 C398.51554291 257.51467471 399.34965164 253.93314244 400.18359375 250.3515625 C400.77819641 247.80379273 401.37293079 245.25605369 401.9677887 242.70834351 C403.21915724 237.34740475 404.46884465 231.98607621 405.7175293 226.62451172 C406.97127849 221.24128155 408.22673554 215.85845391 409.48413086 210.47607422 C417.8603809 174.61982007 426.10534285 138.73631115 434.1875 102.8125 C447.7175 102.8125 461.2475 102.8125 475.1875 102.8125 C475.1875 114.06239035 475.1875 114.06239035 474.0078125 119.10620117 C473.61212822 120.83444878 473.61212822 120.83444878 473.20845032 122.59761047 C472.91278671 123.8377037 472.61712311 125.07779694 472.3125 126.35546875 C471.99609261 127.71842247 471.68067011 129.08160514 471.36613464 130.44499207 C470.50136475 134.18067834 469.62297118 137.91304237 468.74206161 141.64495087 C467.80270405 145.63410763 466.87524352 149.62602945 465.9465332 153.61767578 C464.51478397 159.7660769 463.07826282 165.91333693 461.63738346 172.05960464 C458.62212845 184.92422146 455.64330129 197.79711684 452.67043686 210.67158699 C451.04723732 217.69769043 449.42001869 224.72286377 447.79252434 231.74797344 C446.4524897 237.53246982 445.11382375 243.31727402 443.77856445 249.10287476 C442.50784284 254.60719385 441.23122134 260.11011433 439.9503727 265.61208534 C439.47735829 267.64819271 439.00631829 269.68475995 438.53743553 271.72182274 C433.80815506 292.25768694 429.44233866 310.90048741 411.0625 323.5 C396.55678473 332.03887162 382.42321085 331.38640852 366.04101562 331.33007812 C363.39025468 331.33550427 360.73953849 331.34248627 358.08879089 331.35131836 C351.6605358 331.36902379 345.23246844 331.36529946 338.80420625 331.3536678 C333.57577954 331.34460212 328.34740511 331.34342296 323.11897278 331.34776306 C321.99906058 331.34868246 321.99906058 331.34868246 320.8565239 331.34962043 C319.33939134 331.35089945 317.82225879 331.3521963 316.30512625 331.3535108 C302.10800686 331.36489322 287.9109911 331.35183971 273.7138887 331.33030933 C261.55513827 331.31244046 249.39654065 331.31554523 237.23779297 331.33398438 C223.08845874 331.35543254 208.93921514 331.3637948 194.78986692 331.35153532 C193.27858704 331.35026124 191.76730714 331.34900376 190.25602722 331.34776306 C189.51261744 331.34714596 188.76920765 331.34652886 188.0032703 331.34589306 C182.78640372 331.34245196 177.56959504 331.34824159 172.35273743 331.35768127 C165.98752945 331.36894664 159.62251857 331.36576661 153.25733292 331.3445583 C150.01507726 331.33410829 146.77321368 331.33200634 143.53095055 331.34315491 C123.32289441 331.40621236 108.18526675 329.92470902 92.5 315.875 C79.89175636 302.04698904 77.03206533 283.58034526 73.13465881 265.92111206 C72.26052287 261.98295968 71.36184795 258.05040545 70.46582031 254.1171875 C68.88502335 247.16492761 67.31839099 240.20959365 65.75927734 233.25244141 C63.01384866 221.00854302 60.22105712 208.77556636 57.42578125 196.54296875 C56.42991275 192.18265866 55.43428916 187.82229267 54.4387207 183.46191406 C54.19106177 182.377297 53.94340284 181.29267994 53.6882391 180.17519569 C50.9734273 168.28357913 48.26630572 156.39021718 45.5625 144.49609375 C45.32787363 143.46407963 45.09324726 142.43206551 44.851511 141.36877823 C42.0257041 128.9367058 39.21321515 116.50175181 36.42093658 104.06210709 C35.36772914 99.37390036 34.3096383 94.68679253 33.25231934 89.99951172 C32.46347321 86.49053506 31.68315877 82.97973743 30.90332031 79.46875 C30.44119231 77.41787021 29.97865866 75.36708176 29.515625 73.31640625 C29.22196045 71.97413719 29.22196045 71.97413719 28.92236328 70.60475159 C27.39861788 62.68484445 27.39861788 62.68484445 22.53573608 56.65577698 C20.39725756 55.49156941 18.23084315 54.48438852 16.00390625 53.5 C15.19316147 53.12319092 14.38241669 52.74638184 13.54710388 52.3581543 C10.95588119 51.15835507 8.35370514 49.98492722 5.75 48.8125 C4.03368832 48.02521592 2.31818388 47.2361695 0.60351562 46.4453125 C-1.90030207 45.29138896 -4.40446982 44.13833878 -6.91101074 42.99034119 C-28.31406673 33.18413153 -28.31406673 33.18413153 -31.90625 25.4609375 C-33.90951623 19.60656464 -33.7614295 13.08942019 -31.1875 7.4375 C-28.4263206 2.69293822 -25.00689837 -0.16344743 -20 -2.5 C-12.55404277 -4.10599077 -6.77826506 -3.32879309 0 0 Z " fill="#F0F0F0" transform="translate(34.8125,21.1875)"/>
<path d="M0 0 C11.02103171 9.5560003 18.50228432 20.19058359 20.3984375 34.9921875 C21.41535877 50.05044483 18.13257379 63.64748827 8.1484375 75.1796875 C-1.84020156 85.66118704 -12.86115255 92.19932865 -27.609375 93.1953125 C-43.19306332 93.42965368 -55.9390922 89.17601499 -67.28125 78.3671875 C-77.96086444 67.43586497 -82.87417313 55.144475 -82.84814453 39.86010742 C-82.62999644 27.49589207 -77.75146854 14.59472923 -69.2109375 5.50390625 C-50.24766901 -12.30867847 -21.32783952 -16.46022449 0 0 Z M-47.18359375 32.0546875 C-50.06045762 35.98560893 -50.19666253 40.29844075 -49.6015625 44.9921875 C-47.39864306 51.84011992 -43.46678985 55.91091123 -37.1640625 59.3046875 C-31.21401984 60.90104041 -26.75731145 60.16651299 -21.4609375 57.26171875 C-17.07723858 54.26864701 -13.98507983 50.14893392 -12.6015625 44.9921875 C-11.9275563 39.03846604 -13.23308944 34.82947149 -16.6015625 29.9921875 C-20.128061 26.28936408 -23.37732321 23.31154072 -28.65234375 22.7890625 C-37.39016494 22.60796776 -41.58722019 25.53176203 -47.18359375 32.0546875 Z " fill="#ECECEC" transform="translate(233.6015625,401.0078125)"/>
<path d="M0 0 C10.49756437 7.65902297 17.38659632 18.72178151 20.58203125 31.2890625 C23.14745734 47.92836814 19.38214329 62.00625799 9.78515625 75.73828125 C2.60222012 85.09786469 -9.81837242 91.9597114 -21.37890625 93.75390625 C-36.87570295 95.2088961 -50.20517346 92.52684934 -62.69921875 82.92578125 C-74.27197589 73.01368881 -80.93146654 60.57870088 -82.22265625 45.37890625 C-82.68155766 31.63181607 -78.43089187 18.812023 -69.671875 8.171875 C-51.0544561 -11.38226938 -22.68247598 -15.00795403 0 0 Z M-44.875 30.875 C-48.5543643 36.28582985 -49.46356035 40.42798364 -48.5390625 46.82421875 C-47.17183164 52.34267955 -43.56596157 55.88178234 -39 59 C-34.92761827 61.14335881 -31.57180977 61.39412153 -27 61 C-20.57981702 58.89683661 -16.88278131 55.85663371 -13.1875 50.25 C-11.09811781 44.53169086 -11.10487503 39.36440186 -13.5625 33.75 C-16.38187869 28.70532598 -20.58818084 25.80393972 -26 24 C-33.65047788 23.35165442 -39.61953365 25.01846859 -44.875 30.875 Z " fill="#ECECEC" transform="translate(410,400)"/>
</svg>
