<?xml version="1.0" standalone="no"?>
<!DOCTYPE svg PUBLIC "-//W3C//DTD SVG 20010904//EN"
 "http://www.w3.org/TR/2001/REC-SVG-20010904/DTD/svg10.dtd">
<svg version="1.0" xmlns="http://www.w3.org/2000/svg"
 width="512.000000pt" height="512.000000pt" viewBox="0 0 512.000000 512.000000"
 preserveAspectRatio="xMidYMid meet">

<g transform="translate(0.000000,512.000000) scale(0.100000,-0.100000)"
fill="#000000" stroke="none">
<path d="M2965 4260 c-117 -14 -193 -38 -333 -101 -35 -16 -67 -29 -72 -29 -6
0 -10 -4 -10 -10 0 -5 -5 -10 -11 -10 -28 0 -217 -152 -277 -224 -65 -76 -72
-86 -72 -92 0 -3 -6 -12 -12 -19 -28 -31 -35 -42 -64 -95 -65 -119 -101 -224
-133 -388 -15 -75 -13 -273 4 -367 14 -82 46 -193 67 -232 10 -20 8 -25 -15
-43 -14 -11 -41 -35 -60 -53 -19 -17 -69 -63 -112 -102 -239 -215 -845 -818
-845 -841 0 -3 -13 -18 -28 -32 -55 -53 -180 -199 -198 -233 -17 -30 -19 -54
-16 -224 3 -231 13 -288 56 -331 43 -43 100 -53 331 -56 217 -3 218 -3 315 84
59 54 79 91 79 152 3 184 83 280 213 256 102 -19 204 30 252 120 27 50 30 64
31 155 1 107 11 137 59 169 28 18 122 36 188 36 73 0 106 19 188 110 41 46 90
98 107 117 18 19 42 46 53 60 18 23 23 25 43 15 89 -47 273 -82 429 -82 114 0
156 5 288 37 107 25 308 116 357 161 13 12 28 22 34 22 5 0 9 4 9 8 0 4 13 15
29 25 65 38 253 255 268 310 3 9 9 17 14 17 5 0 9 4 9 10 0 5 13 37 29 72 87
192 104 269 104 478 1 189 -17 294 -68 415 -63 149 -137 276 -200 341 -11 12
-32 34 -46 50 -110 122 -320 252 -494 305 -123 38 -352 56 -490 39z m580 -565
c62 -28 127 -95 156 -160 30 -71 30 -194 -1 -256 -56 -112 -171 -189 -284
-189 -242 -1 -400 253 -289 465 23 45 93 114 138 138 78 41 191 42 280 2z"/>
</g>
</svg>
